<svg width="93" height="40" viewBox="0 0 93 40" fill="none" xmlns="http://www.w3.org/2000/svg">
<path fill-rule="evenodd" clip-rule="evenodd" d="M81.507 37.2883C80.4854 38.4725 78.4116 38.2949 78.071 36.5631C77.9084 35.7044 78.145 34.6684 78.5154 33.943C79.3448 32.3591 80.8407 31.0566 82.544 30.6274C82.544 31.6044 82.544 32.8921 82.5144 33.8839C82.4844 34.9793 82.2478 36.4149 81.507 37.2883ZM65.0235 13.8865C65.9715 13.9456 66.7269 14.9816 66.475 16.7431C66.164 18.8304 64.4311 21.0653 62.4615 21.5685C62.1503 20.8285 62.0024 19.3186 62.1799 17.8385C62.5059 15.1296 63.898 13.8271 65.0235 13.8865ZM28.1023 23.9812C26.636 22.0274 26.6951 19.6591 27.1545 17.4092C28.5909 20.636 32.4269 21.1986 34.7964 20.7249C34.4855 23.2116 33.1818 25.3875 30.931 25.3875C29.6721 25.4023 28.7536 24.8546 28.1023 23.9812ZM33.2858 14.8631C34.0084 15.6005 34.4959 16.6754 34.719 17.8684C34.7204 17.8682 34.7224 17.8829 34.7224 17.8829C34.7215 17.878 34.7201 17.8732 34.719 17.8684C33.0615 18.1045 31.4633 17.7936 30.2941 16.891C29.4501 16.225 29.2278 15.1741 29.5833 14.5376C30.1014 13.62 31.6568 13.2202 33.2858 14.8631ZM10.7154 2.72562C11.737 1.52687 13.8105 1.71899 14.1364 3.45099C14.2991 4.29462 14.077 5.33074 13.707 6.05599C12.8773 7.63974 11.3815 8.94224 9.67825 9.38637C9.67825 8.39487 9.66338 7.12174 9.70825 6.13012C9.73763 5.03474 9.97475 3.58412 10.7154 2.72562ZM86.3205 28.3923C86.3351 23.2412 86.3205 18.0901 86.3205 12.939C86.3205 11.6661 82.6624 11.5919 82.544 12.8799C82.544 13.3979 82.544 13.9307 82.529 14.4487C82.47 17.276 81.1223 22.5602 78.8859 24.4845C78.2786 25.0028 77.7305 25.0322 77.3458 24.7509C77.0049 24.4992 76.9159 23.863 76.9159 23.3153V22.6047C76.9159 19.4224 76.9309 16.1362 76.9159 12.9537C76.9159 11.6807 73.2579 11.5919 73.1394 12.8799C73.1394 15.8401 73.1394 18.7119 73.1544 21.6426C70.7401 25.4911 65.1569 27.297 62.8465 22.7379C64.2831 23.2856 65.8084 23.0191 66.8453 22.4715C68.6374 21.5241 69.9998 19.9552 70.2663 17.4685C70.518 10.1857 60.8918 9.19425 58.744 16.61C58.3888 17.8385 58.1963 19.1559 58.2408 20.4436C58.2849 21.6721 58.5368 22.8119 58.9663 23.8185C58.1811 24.5881 57.2779 25.121 56.3746 25.0915C55.1895 25.047 55.3084 23.5817 55.3084 22.7379V17.1871C55.3084 16.5211 55.3084 15.855 55.2489 15.2039C55.0566 13.2647 53.5754 11.7252 51.5021 11.5919C48.5546 11.5476 46.4814 14.286 45.4595 17.2909C45.4449 15.6182 45.4595 14.6264 45.4595 12.939C45.4449 11.6807 42.0534 11.5919 41.6683 12.9241C41.1795 14.6116 39.5799 15.929 38.084 16.7134C37.6251 15.6034 37.0476 14.5821 36.2479 13.7089C32.9598 10.1414 28.206 10.7929 25.4214 13.7382C23.2148 16.0771 22.5486 20.2956 23.7333 23.2559C22.8595 24.2922 21.66 25.1359 20.5936 25.0915C20.0603 25.0619 19.7641 24.7509 19.6308 24.2625C19.4974 23.7887 19.5273 23.2265 19.5273 22.7379C19.5273 20.8876 19.5123 19.0374 19.5273 17.1871C19.5273 16.5211 19.5273 15.855 19.4681 15.2039C19.2754 13.2647 18.135 11.7104 15.9729 11.5774C12.2554 11.4142 10.7596 15.0114 9.66338 17.9716V11.6512C10.4485 11.518 11.204 11.3255 11.959 11.1036C20.1491 8.75 18.5644 0.149992 12.4629 0.00211736C8.34563 -0.0866327 5.90175 2.62199 5.93163 6.73687V9.40125C4.4505 9.17937 3.33963 7.25512 2.71788 6.01174C2.62875 5.81924 2.53988 5.62674 2.45125 5.43424C2.37725 5.24187 2.16988 5.13849 1.977 5.19762C1.81438 5.24187 1.6515 5.30124 1.48838 5.36037C0.89625 5.62687 0.407125 6.08574 0.1705 6.69262C-0.258875 7.77312 0.1705 8.92774 0.9255 9.74174C2.16988 11.0444 4.1545 11.518 5.90175 11.6067C5.88688 16.7431 5.90175 21.8646 5.90175 27.0009C5.961 27.7263 6.9535 27.9188 7.531 27.9334C8.13838 27.9483 9.45625 27.7558 9.47125 26.927L9.51563 26.2904C9.76738 24.011 11.959 14.8929 14.7285 14.878C15.41 14.878 15.7508 15.3221 15.7508 15.9882V24.1146C15.7508 26.6309 17.1724 28.3183 19.7494 28.3183C21.7488 28.3331 23.5553 26.8824 24.6365 25.0767C24.7845 25.2691 24.9031 25.4762 25.066 25.6539C26.4729 27.297 28.5464 28.348 30.9161 28.3628C36.0845 28.2886 38.7355 23.8481 38.5434 19.4815C39.7429 18.8155 40.8241 17.9567 41.6531 16.891V27.0009C41.7125 27.7263 42.7494 27.9188 43.3271 27.9334C43.934 27.9483 45.2524 27.7558 45.2524 26.927L45.3115 26.2904L45.489 24.603C45.7559 22.2495 47.5183 14.8929 50.5246 14.878C51.1908 14.878 51.5319 15.3221 51.5319 15.9882V24.1146C51.5319 26.6309 52.9536 28.3183 55.545 28.3183C57.3373 28.3331 58.9663 27.1638 60.0623 25.6244C61.5135 27.4154 63.7354 28.4663 66.4008 28.4663C69.526 28.4663 71.7916 27.0898 73.3024 24.8694C73.643 26.779 74.6649 28.2886 77.168 28.3183C79.7594 28.3331 81.7294 24.7215 82.544 22.5454V28.3628C81.7735 28.4959 81.0185 28.6884 80.2634 28.9103C72.0733 31.2491 73.643 39.8638 79.7448 39.9971C83.8768 40.1008 86.3055 37.3919 86.2909 33.277C86.2909 32.5814 86.276 31.2788 86.2909 30.5978C87.757 30.8199 88.8825 32.759 89.4899 34.0024C89.5934 34.1948 89.6824 34.387 89.7565 34.5795C89.8453 34.772 90.0377 34.8608 90.2451 34.8163C90.408 34.772 90.5709 34.7129 90.7189 34.6386C91.3263 34.3724 91.8152 33.9284 92.052 33.3066C92.4815 32.2261 92.052 31.0864 91.2818 30.2721C90.0528 28.9549 88.053 28.4959 86.3205 28.3923Z" fill="#FFA638"/>
</svg>
